<svg width="60" height="61" viewBox="0 0 60 61" fill="none" xmlns="http://www.w3.org/2000/svg">
<g clip-path="url(#clip0_207_17558)">
<path d="M59 30.5C59 46.808 46.0007 60 30 60C13.9993 60 1 46.808 1 30.5C1 14.192 13.9993 1 30 1C46.0007 1 59 14.192 59 30.5Z" stroke="#FFBC57" stroke-width="2"/>
<path d="M33.5964 40.2799C33.9956 40.2799 34.3785 40.1197 34.6609 39.8347C34.9432 39.5496 35.1018 39.163 35.1018 38.7599V35.7199C35.1018 35.3167 34.9432 34.9301 34.6609 34.645C34.3785 34.36 33.9956 34.1998 33.5964 34.1998C33.1971 34.1998 32.8142 34.36 32.5319 34.645C32.2496 34.9301 32.091 35.3167 32.091 35.7199V38.7599C32.091 39.163 32.2496 39.5496 32.5319 39.8347C32.8142 40.1197 33.1971 40.2799 33.5964 40.2799ZM27.5747 40.2799C27.974 40.2799 28.3569 40.1197 28.6392 39.8347C28.9215 39.5496 29.0801 39.163 29.0801 38.7599V35.7199C29.0801 35.3167 28.9215 34.9301 28.6392 34.645C28.3569 34.36 27.974 34.1998 27.5747 34.1998C27.1755 34.1998 26.7926 34.36 26.5102 34.645C26.2279 34.9301 26.0693 35.3167 26.0693 35.7199V38.7599C26.0693 39.163 26.2279 39.5496 26.5102 39.8347C26.7926 40.1197 27.1755 40.2799 27.5747 40.2799ZM41.1234 22.0397H39.046L36.4416 16.7957C36.362 16.6027 36.2439 16.4284 36.0946 16.2836C35.9453 16.1389 35.768 16.0267 35.5738 15.9543C35.3796 15.8818 35.1727 15.8506 34.966 15.8625C34.7594 15.8744 34.5573 15.9292 34.3726 16.0235C34.1879 16.1178 34.0244 16.2496 33.8923 16.4106C33.7603 16.5716 33.6626 16.7584 33.6053 16.9592C33.548 17.1601 33.5323 17.3707 33.5593 17.578C33.5862 17.7852 33.6552 17.9846 33.762 18.1637L35.6739 22.0397H25.4973L27.4091 18.1637C27.5553 17.8094 27.5632 17.4124 27.4314 17.0524C27.2997 16.6924 27.0379 16.3961 26.6987 16.2229C26.3595 16.0497 25.9679 16.0125 25.6027 16.1188C25.2374 16.225 24.9255 16.4668 24.7295 16.7957L22.1251 22.0397H20.0477C18.9836 22.0561 17.9595 22.4513 17.1558 23.1556C16.3522 23.86 15.8207 24.8282 15.6551 25.8896C15.4895 26.951 15.7004 28.0374 16.2507 28.9571C16.8009 29.8768 17.6552 30.5708 18.6627 30.9166L19.7767 42.2559C19.889 43.3846 20.414 44.4305 21.2491 45.1894C22.0842 45.9483 23.1694 46.3656 24.2929 46.3599H36.9083C38.0318 46.3656 39.117 45.9483 39.9521 45.1894C40.7872 44.4305 41.3122 43.3846 41.4245 42.2559L42.5385 30.9166C43.5483 30.5697 44.4038 29.8732 44.9537 28.9504C45.5035 28.0277 45.7122 26.9382 45.5427 25.8749C45.3732 24.8117 44.8365 23.8434 44.0276 23.1414C43.2188 22.4394 42.19 22.0492 41.1234 22.0397V22.0397ZM38.3987 41.9519C38.3612 42.3281 38.1862 42.6768 37.9078 42.9297C37.6295 43.1827 37.2677 43.3218 36.8932 43.3199H24.2779C23.9034 43.3218 23.5416 43.1827 23.2633 42.9297C22.9849 42.6768 22.8099 42.3281 22.7725 41.9519L21.7036 31.1598H39.4675L38.3987 41.9519ZM41.1234 28.1198H20.0477C19.6484 28.1198 19.2655 27.9596 18.9832 27.6746C18.7009 27.3895 18.5423 27.0029 18.5423 26.5998C18.5423 26.1966 18.7009 25.81 18.9832 25.525C19.2655 25.2399 19.6484 25.0798 20.0477 25.0798H41.1234C41.5227 25.0798 41.9056 25.2399 42.1879 25.525C42.4703 25.81 42.6289 26.1966 42.6289 26.5998C42.6289 27.0029 42.4703 27.3895 42.1879 27.6746C41.9056 27.9596 41.5227 28.1198 41.1234 28.1198Z" fill="#535353"/>
</g>
<defs>
<clipPath id="clip0_207_17558">
<rect width="60" height="61" fill="white"/>
</clipPath>
</defs>
</svg>
