<svg width="24" height="25" viewBox="0 0 24 25" fill="none" xmlns="http://www.w3.org/2000/svg">
<path d="M21 3.97517H15.8772C15.3249 3.97517 14.8772 4.42289 14.8772 4.97517V10.0979C14.8772 10.6502 15.3249 11.0979 15.8772 11.0979H21C21.5523 11.0979 22 10.6502 22 10.0979V4.97517C22 4.42289 21.5523 3.97517 21 3.97517Z" fill="white"/>
<path d="M11.366 6.82945L7.74361 3.20711C7.35308 2.81658 6.71992 2.81658 6.32939 3.20711L2.70705 6.82945C2.31652 7.21998 2.31652 7.85314 2.70705 8.24366L6.32939 11.866C6.71992 12.2565 7.35308 12.2565 7.74361 11.866L11.366 8.24366C11.7565 7.85314 11.7565 7.21998 11.366 6.82945Z" fill="white"/>
<path d="M9.59787 15.3772H4.4751C3.92281 15.3772 3.4751 15.8249 3.4751 16.3772V21.5C3.4751 22.0523 3.92281 22.5 4.4751 22.5H9.59787C10.1502 22.5 10.5979 22.0523 10.5979 21.5V16.3772C10.5979 15.8249 10.1502 15.3772 9.59787 15.3772Z" fill="white"/>
<path d="M21 15.3772H15.8772C15.3249 15.3772 14.8772 15.8249 14.8772 16.3772V21.5C14.8772 22.0523 15.3249 22.5 15.8772 22.5H21C21.5523 22.5 22 22.0523 22 21.5V16.3772C22 15.8249 21.5523 15.3772 21 15.3772Z" fill="white"/>
</svg>
