<svg width="61" height="61" viewBox="0 0 61 61" fill="none" xmlns="http://www.w3.org/2000/svg">
<g clip-path="url(#clip0_207_17018)">
<circle cx="30.5" cy="30.5" r="29.5" stroke="#FFBC57" stroke-width="2"/>
<path d="M43.3872 20.0526C41.7103 18.3713 39.4874 17.3451 37.1201 17.1595C34.7527 16.9738 32.3971 17.6409 30.4785 19.0401C28.4658 17.543 25.9605 16.8642 23.4672 17.1403C20.974 17.4164 18.6779 18.6269 17.0415 20.5281C15.405 22.4293 14.5497 24.8799 14.6477 27.3865C14.7458 29.8931 15.7899 32.2694 17.5699 34.037L27.3937 43.8766C28.2164 44.6862 29.3243 45.14 30.4785 45.14C31.6327 45.14 32.7407 44.6862 33.5633 43.8766L43.3872 34.037C45.2342 32.1786 46.2709 29.6649 46.2709 27.0448C46.2709 24.4246 45.2342 21.9109 43.3872 20.0526V20.0526ZM41.1566 31.8539L31.3328 41.6777C31.221 41.7906 31.0879 41.8802 30.9413 41.9414C30.7947 42.0025 30.6374 42.034 30.4785 42.034C30.3197 42.034 30.1624 42.0025 30.0158 41.9414C29.8691 41.8802 29.7361 41.7906 29.6243 41.6777L19.8004 31.8064C18.5598 30.5382 17.8651 28.8347 17.8651 27.0606C17.8651 25.2865 18.5598 23.5829 19.8004 22.3148C21.0646 21.0666 22.7697 20.3667 24.5463 20.3667C26.3228 20.3667 28.0279 21.0666 29.2921 22.3148C29.4391 22.463 29.6141 22.5807 29.8069 22.661C29.9997 22.7413 30.2064 22.7827 30.4153 22.7827C30.6241 22.7827 30.8309 22.7413 31.0236 22.661C31.2164 22.5807 31.3914 22.463 31.5384 22.3148C32.8027 21.0666 34.5077 20.3667 36.2843 20.3667C38.0608 20.3667 39.7659 21.0666 41.0301 22.3148C42.2878 23.5663 43.0053 25.2606 43.0289 27.0348C43.0526 28.8089 42.3805 30.5218 41.1566 31.8064V31.8539Z" fill="#535353"/>
</g>
<defs>
<clipPath id="clip0_207_17018">
<rect width="61" height="61" fill="white"/>
</clipPath>
</defs>
</svg>
