<svg width="50" height="51" viewBox="0 0 50 51" fill="none" xmlns="http://www.w3.org/2000/svg">
<g clip-path="url(#clip0_42_193)">
<circle cx="25" cy="25.5" r="25" fill="#F8F8F8"/>
<path d="M33.0918 27.1961C32.8379 27.1961 32.5724 27.1153 32.3185 27.0576C31.8047 26.9427 31.2995 26.7923 30.8065 26.6074C30.2711 26.4126 29.6825 26.4228 29.1541 26.6358C28.6256 26.8489 28.1947 27.2499 27.9441 27.7616L27.6902 28.2925C26.5693 27.6568 25.5337 26.8811 24.6085 25.9842C23.7115 25.0589 22.9359 24.0234 22.3001 22.9025L22.8311 22.6601C23.3428 22.4096 23.7438 21.9786 23.9568 21.4502C24.1699 20.9217 24.18 20.3332 23.9852 19.7977C23.8019 19.3003 23.6516 18.7914 23.5351 18.2742C23.4774 18.0203 23.4312 17.7548 23.3966 17.5009C23.2564 16.6879 22.8306 15.9517 22.1958 15.4248C21.561 14.8979 20.7589 14.615 19.934 14.627H16.4599C15.972 14.6263 15.4894 14.7288 15.0439 14.9277C14.5983 15.1266 14.1999 15.4175 13.8746 15.7811C13.5425 16.1547 13.2953 16.5957 13.1499 17.0739C13.0044 17.552 12.9642 18.056 13.032 18.5512C13.6594 23.3551 15.8542 27.8178 19.2762 31.2473C22.7057 34.6692 27.1683 36.864 31.9722 37.4914C32.122 37.5029 32.2725 37.5029 32.4224 37.4914C33.2735 37.4927 34.0952 37.1804 34.7307 36.6142C35.0944 36.2889 35.3852 35.8905 35.5842 35.4449C35.7831 34.9994 35.8856 34.5168 35.8849 34.0289V30.5663C35.8787 29.7688 35.5974 28.9979 35.0885 28.3838C34.5795 27.7698 33.8743 27.3502 33.0918 27.1961ZM33.6573 34.1212C33.657 34.2822 33.6229 34.4414 33.5573 34.5885C33.4917 34.7356 33.396 34.8674 33.2765 34.9753C33.15 35.0905 32.9994 35.1762 32.8357 35.2261C32.672 35.276 32.4993 35.2889 32.33 35.2638C28.0229 34.7013 24.0202 32.7385 20.9382 29.6776C17.8536 26.593 15.8737 22.5763 15.3058 18.2511C15.2807 18.0818 15.2936 17.9091 15.3435 17.7454C15.3934 17.5817 15.4791 17.4312 15.5943 17.3047C15.7035 17.1837 15.8371 17.0872 15.9863 17.0215C16.1355 16.9559 16.2969 16.9226 16.4599 16.9238H19.9225C20.1893 16.9173 20.4501 17.0034 20.6606 17.1676C20.871 17.3317 21.0181 17.5637 21.0767 17.8241C21.0767 18.1357 21.1806 18.4589 21.2498 18.7705C21.3832 19.3751 21.5607 19.9692 21.7807 20.5479L20.1649 21.3097C19.8871 21.4372 19.6713 21.6696 19.5647 21.9561C19.4493 22.2371 19.4493 22.5522 19.5647 22.8332C21.2258 26.3913 24.0859 29.2514 27.644 30.9125C27.925 31.028 28.2402 31.028 28.5212 30.9125C28.8076 30.8059 29.0401 30.5901 29.1675 30.3124L29.8947 28.6965C30.4901 28.9136 31.0993 29.091 31.7183 29.2274C32.0184 29.2967 32.3416 29.3544 32.6532 29.4006C32.9136 29.4592 33.1456 29.6062 33.3097 29.8167C33.4738 30.0271 33.56 30.2879 33.5535 30.5547L33.6573 34.1212ZM26.8476 14.5C26.5822 14.5 26.3052 14.5 26.0397 14.5C25.7336 14.526 25.4504 14.6726 25.2523 14.9074C25.0542 15.1423 24.9576 15.4462 24.9836 15.7523C25.0096 16.0584 25.1562 16.3416 25.391 16.5397C25.6259 16.7377 25.9298 16.8344 26.2359 16.8084H26.8476C28.6843 16.8084 30.4457 17.538 31.7444 18.8367C33.0431 20.1354 33.7728 21.8968 33.7728 23.7335C33.7728 23.9413 33.7728 24.1375 33.7728 24.3452C33.7472 24.6497 33.8434 24.9519 34.0402 25.1856C34.2371 25.4193 34.5187 25.5653 34.8231 25.5917H34.9154C35.2043 25.5929 35.4832 25.4857 35.6969 25.2912C35.9106 25.0967 36.0436 24.8292 36.0696 24.5414C36.0696 24.276 36.0696 23.999 36.0696 23.7335C36.0696 21.2866 35.0984 18.9398 33.3692 17.2085C31.6401 15.4772 29.2945 14.5031 26.8476 14.5ZM29.156 23.7335C29.156 24.0396 29.2776 24.3332 29.4941 24.5496C29.7105 24.7661 30.0041 24.8877 30.3102 24.8877C30.6163 24.8877 30.9099 24.7661 31.1263 24.5496C31.3428 24.3332 31.4644 24.0396 31.4644 23.7335C31.4644 22.5091 30.978 21.3348 30.1122 20.469C29.2464 19.6032 28.0721 19.1168 26.8476 19.1168C26.5415 19.1168 26.2479 19.2384 26.0315 19.4548C25.815 19.6713 25.6934 19.9648 25.6934 20.2709C25.6934 20.577 25.815 20.8706 26.0315 21.0871C26.2479 21.3035 26.5415 21.4251 26.8476 21.4251C27.4598 21.4251 28.047 21.6683 28.4799 22.1012C28.9128 22.5341 29.156 23.1213 29.156 23.7335Z" fill="#535353"/>
</g>
<defs>
<clipPath id="clip0_42_193">
<rect width="50" height="50" fill="white" transform="translate(0 0.5)"/>
</clipPath>
</defs>
</svg>
