<svg width="250" height="61" viewBox="0 0 250 61" fill="none" xmlns="http://www.w3.org/2000/svg">
<path d="M98.5259 44.5644H94.8927V42.2837H104.038V44.5644H100.405V55.8159H98.4006V44.5644H98.5259ZM113.058 55.8159H106.419V42.2837H112.808V44.5644H108.298V47.9094H112.307V50.1901H108.298V53.6872H112.933V55.8159H113.058ZM122.705 42.2837H124.96L121.202 48.8217L125.086 55.6638H122.83L119.949 50.6463L117.067 55.6638H114.812L118.696 48.8217L114.938 42.2837H117.193L119.949 47.1492L122.705 42.2837ZM136.486 55.8159H134.482V50.0381H129.47V55.8159H127.466V42.2837H129.47V47.7574H134.607V42.2837H136.486V55.8159ZM139.368 49.1258C139.368 47.1492 139.869 45.4767 140.996 44.1082C142.124 42.7398 143.502 42.1316 145.131 42.1316C146.759 42.1316 148.137 42.7398 149.265 44.1082C150.392 45.4767 150.893 47.1492 150.893 49.1258C150.893 51.1024 150.392 52.7749 149.265 54.1434C148.137 55.5118 146.759 56.12 145.131 56.12C143.502 56.12 142.124 55.5118 140.996 54.1434C139.869 52.7749 139.368 51.1024 139.368 49.1258ZM141.372 49.1258C141.372 50.4942 141.748 51.5586 142.374 52.4709C143.001 53.3831 144.003 53.8393 145.005 53.8393C146.133 53.8393 147.01 53.3831 147.761 52.4709C148.388 51.5586 148.764 50.4942 148.764 49.1258C148.764 47.7574 148.388 46.541 147.636 45.7808C146.884 44.8685 146.007 44.4123 145.005 44.4123C143.878 44.4123 143.001 44.8685 142.374 45.7808C141.748 46.541 141.372 47.7574 141.372 49.1258ZM161.918 55.8159H160.039V44.5644H156.782L156.531 47.1492C156.406 48.6697 156.281 50.0381 156.03 51.1024C155.779 52.1668 155.654 53.079 155.404 53.6872C155.153 54.2954 154.902 54.9036 154.527 55.2077C154.151 55.5118 153.9 55.8159 153.524 55.8159C153.149 55.9679 152.773 55.9679 152.272 55.8159V53.5352C152.522 53.5352 152.647 53.5352 152.898 53.5352C153.023 53.5352 153.274 53.2311 153.399 52.927C153.65 52.6229 153.775 52.1668 153.9 51.5586C154.276 50.1901 154.527 48.0615 154.777 45.0205L154.902 42.2837H161.918V55.8159ZM164.8 49.1258C164.8 47.1492 165.301 45.4767 166.428 44.1082C167.556 42.7398 168.934 42.1316 170.563 42.1316C172.191 42.1316 173.569 42.7398 174.697 44.1082C175.824 45.4767 176.326 47.1492 176.326 49.1258C176.326 51.1024 175.824 52.7749 174.697 54.1434C173.569 55.5118 172.191 56.12 170.563 56.12C168.934 56.12 167.556 55.5118 166.428 54.1434C165.301 52.7749 164.8 51.1024 164.8 49.1258ZM166.929 49.1258C166.929 50.4942 167.305 51.5586 167.932 52.4709C168.558 53.3831 169.56 53.8393 170.563 53.8393C171.69 53.8393 172.567 53.3831 173.319 52.4709C173.945 51.5586 174.321 50.4942 174.321 49.1258C174.321 47.7574 173.945 46.541 173.194 45.7808C172.442 44.8685 171.565 44.4123 170.563 44.4123C169.435 44.4123 168.558 44.8685 167.932 45.7808C167.18 46.541 166.929 47.7574 166.929 49.1258ZM181.212 55.8159H179.207V42.2837H185.471V44.5644H181.212V55.8159ZM190.107 55.8159H188.102V42.2837H190.107V55.8159ZM192.988 40.003C192.988 39.6989 193.113 39.3948 193.239 39.0907C193.489 38.9386 193.74 38.7866 193.99 38.7866C194.241 38.7866 194.491 38.9386 194.742 39.0907C194.993 39.2427 194.992 39.5468 194.992 40.003C194.992 40.4591 194.867 40.7632 194.742 40.9152C194.617 41.0673 194.366 41.2193 193.99 41.2193C193.74 41.2193 193.489 41.0673 193.239 40.9152C193.113 40.6111 192.988 40.307 192.988 40.003ZM196.245 55.8159H194.241V42.2837H196.245V55.8159ZM195.619 40.003C195.619 39.6989 195.744 39.3948 195.869 39.0907C196.12 38.9386 196.371 38.7866 196.621 38.7866C196.872 38.7866 197.122 38.9386 197.373 39.0907C197.623 39.3948 197.623 39.5468 197.623 40.003C197.623 40.4591 197.498 40.7632 197.373 40.9152C197.248 41.2193 196.997 41.2193 196.621 41.2193C196.245 41.2193 195.995 41.0673 195.869 40.9152C195.744 40.6111 195.619 40.307 195.619 40.003ZM211.905 52.7749L212.657 54.5995C212.281 55.0557 211.78 55.3598 211.154 55.6638C210.527 55.9679 209.776 56.12 209.149 56.12C207.395 56.12 206.017 55.5118 205.015 54.1434C204.013 52.927 203.386 51.2545 203.386 49.1258C203.386 47.1492 203.887 45.4767 204.89 44.1082C205.892 42.7398 207.27 42.1316 209.024 42.1316C210.402 42.1316 211.53 42.5878 212.407 43.5L211.53 45.3246C210.778 44.7164 209.901 44.4123 209.024 44.4123C208.022 44.4123 207.145 44.8685 206.393 45.6287C205.767 46.541 205.391 47.6053 205.391 49.1258C205.391 50.4942 205.767 51.7106 206.393 52.6229C207.145 53.5352 208.022 53.9913 209.149 53.9913C210.277 53.8393 211.154 53.5352 211.905 52.7749ZM224.183 55.8159H222.304V50.0381H217.167V55.8159H215.163V42.2837H217.167V47.7574H222.304V42.2837H224.183V55.8159ZM235.083 42.2837H237.087L233.329 52.6229C232.953 53.6872 232.452 54.4475 232.076 55.0557C231.575 55.5118 231.074 55.8159 230.322 55.8159C229.57 55.8159 229.194 55.6638 228.818 55.2077L229.445 53.2311C229.695 53.3831 229.946 53.5352 230.322 53.5352C230.823 53.5352 231.199 53.2311 231.449 52.6229L231.575 52.1668L226.689 42.2837H228.944L232.577 49.886L235.083 42.2837Z" fill="#535353"/>
<path d="M92.6447 19.1725L103.419 35.1374H96.5285L87.884 21.9093V35.1374H82.4969V5.18409H87.884V17.3479L96.1526 5.18409H102.793L92.6447 19.1725ZM202.516 11.418H210.033V35.1374H215.42V11.418H222.937V5.18409H202.391V11.418H202.516ZM118.954 23.1257L126.596 35.1374H120.081L113.692 24.4941H111.688V35.1374H106.3V5.18409H106.927C108.054 5.18409 109.307 5.18409 110.685 5.18409C112.063 5.18409 113.191 5.18409 114.068 5.18409C121.585 5.18409 123.213 10.3537 123.213 14.7631C123.213 17.0438 122.712 19.0204 121.71 20.5409C120.833 21.6052 119.956 22.5175 118.954 23.1257ZM112.314 11.418C112.063 11.418 111.938 11.418 111.688 11.418V18.2602H113.692C114.82 18.2602 115.822 17.9561 116.573 17.1958C117.2 16.5877 117.576 15.6754 117.576 14.611C117.576 13.0906 117.2 11.266 113.817 11.266C113.692 11.266 113.567 11.266 113.316 11.266C113.066 11.418 112.69 11.418 112.314 11.418ZM193.872 5.18409L204.27 35.1374H198.507L196.127 27.8392H186.982L184.601 35.1374H179.089L189.362 5.18409H193.872ZM191.492 14.3069L188.986 21.6052H193.997L191.492 14.3069ZM249.497 20.2368C249.497 24.6462 248.244 28.4474 245.864 31.3363C243.483 34.2252 240.351 35.7456 236.718 35.7456C233.085 35.7456 229.953 34.3772 227.573 31.4883C225.192 28.5994 223.94 24.9503 223.94 20.3888C223.94 16.1315 225.192 12.3303 227.573 9.44142C229.953 6.55252 233.085 5.03204 236.718 5.03204C240.351 5.03204 243.483 6.40047 245.864 9.28937C248.244 11.8742 249.497 15.6754 249.497 20.2368ZM241.98 26.7748C243.358 24.9503 243.985 22.8216 243.985 20.0847C243.985 17.3479 243.358 15.2192 241.855 13.3947C240.477 11.7221 238.723 10.8098 236.718 10.8098C234.588 10.8098 232.96 11.7221 231.582 13.3947C230.204 15.0672 229.577 17.3479 229.577 20.0847C229.577 22.8216 230.204 24.9503 231.582 26.6228C232.96 28.4474 234.588 29.2076 236.718 29.2076C238.973 29.3596 240.602 28.5994 241.98 26.7748ZM176.082 5.18409L169.818 24.9503L163.303 5.18409H157.54L167.688 35.1374H171.697L181.594 5.18409H176.082V5.18409Z" fill="#535353"/>
<path d="M153.102 7.92307C151.595 6.09723 149.585 5.03215 147.45 5.03215C145.315 5.03215 143.306 6.09723 141.799 7.92307L141.422 8.37953L140.919 7.77091C139.412 5.94507 137.403 4.88 135.268 4.88C133.132 4.88 131.123 5.94507 129.616 7.77091C128.109 9.59676 127.229 12.0312 127.229 14.6178C127.229 17.2044 128.109 19.6389 129.616 21.4647L140.543 34.7021C140.794 35.0064 141.045 35.1585 141.422 35.1585C141.799 35.1585 142.05 35.0064 142.301 34.7021L153.228 21.4647C154.735 19.6389 155.614 17.2044 155.614 14.6178C155.614 12.0312 154.735 9.74891 153.102 7.92307Z" fill="#00B5FF"/>
<mask id="mask0_201_11352" style="mask-type:alpha" maskUnits="userSpaceOnUse" x="127" y="4" width="29" height="32">
<path d="M153.102 7.92307C151.595 6.09723 149.585 5.03215 147.45 5.03215C145.315 5.03215 143.306 6.09723 141.799 7.92307L141.422 8.37953L140.919 7.77091C139.412 5.94507 137.403 4.88 135.268 4.88C133.132 4.88 131.123 5.94507 129.616 7.77091C128.109 9.59676 127.229 12.0312 127.229 14.6178C127.229 17.2044 128.109 19.6389 129.616 21.4647L140.543 34.7021C140.794 35.0064 141.045 35.1585 141.422 35.1585C141.799 35.1585 142.05 35.0064 142.301 34.7021L153.228 21.4647C154.735 19.6389 155.614 17.2044 155.614 14.6178C155.614 12.0312 154.735 9.74891 153.102 7.92307Z" fill="#00B5FF"/>
</mask>
<g mask="url(#mask0_201_11352)">
<rect x="126.293" y="14.3227" width="30.0675" height="15.0844" fill="#FFBC00"/>
</g>
<path d="M7.23477 22.448V54.656C7.23477 55.5344 6.75246 56.12 6.02898 56.12H1.2058C0.482318 56.12 0 55.5344 0 54.656V22.448C0 21.5696 0.482318 20.984 1.2058 20.984H6.02898C6.75246 20.984 7.23477 21.716 7.23477 22.448ZM72.7942 20.984H67.971C67.2476 20.984 66.7652 21.5696 66.7652 22.448V54.656C66.7652 55.5344 67.2476 56.12 67.971 56.12H72.7942C73.5177 56.12 74 55.5344 74 54.656V22.448C74 21.716 73.5177 20.984 72.7942 20.984Z" fill="#FFBC57"/>
<path d="M64.3536 31.232V40.016C64.3536 40.8944 63.8713 41.48 63.1479 41.48H10.8522C10.1287 41.48 9.64636 40.8944 9.64636 40.016V31.232C9.64636 30.3536 10.1287 29.768 10.8522 29.768H63.1479C63.8713 29.768 64.3536 30.3536 64.3536 31.232ZM10.8522 26.84H25.0686C25.7921 26.84 26.2744 26.2544 26.2744 25.376V6.344C26.2744 5.4656 25.7921 4.88 25.0686 4.88H10.8522C10.1287 4.88 9.64636 5.4656 9.64636 6.344V25.376C9.64636 26.2544 10.1287 26.84 10.8522 26.84ZM29.8918 26.84H44.1082C44.8317 26.84 45.314 26.2544 45.314 25.376V6.344C45.314 5.4656 44.8317 4.88 44.1082 4.88H29.8918C29.1683 4.88 28.686 5.4656 28.686 6.344V25.376C28.686 26.2544 29.1683 26.84 29.8918 26.84ZM63.1479 4.88H48.9314C48.2079 4.88 47.7256 5.4656 47.7256 6.344V25.376C47.7256 26.2544 48.2079 26.84 48.9314 26.84H63.1479C63.8713 26.84 64.3536 26.2544 64.3536 25.376V6.344C64.3536 5.4656 63.8713 4.88 63.1479 4.88ZM63.1479 44.408H10.8522C10.1287 44.408 9.64636 44.9936 9.64636 45.872V54.656C9.64636 55.5344 10.1287 56.12 10.8522 56.12H17.8338C18.5573 56.12 19.0396 55.5344 19.0396 54.656V53.192H54.9604V54.656C54.9604 55.5344 55.4427 56.12 56.1662 56.12H63.1479C63.8713 56.12 64.3536 55.5344 64.3536 54.656V45.872C64.3536 44.9936 63.8713 44.408 63.1479 44.408Z" fill="#FFBC57"/>
</svg>
