<svg width="23" height="29" viewBox="0 0 23 29" fill="none" xmlns="http://www.w3.org/2000/svg">
<path d="M22.6771 25.7744L18.4131 20.6105C20.0682 18.0909 20.8698 14.8928 20.6529 11.6738C20.436 8.45476 19.2172 5.45954 17.2471 3.30398C15.277 1.14842 12.7054 -0.0036236 10.0609 0.0847244C7.41647 0.173072 4.90025 1.4951 3.02965 3.77897C1.15904 6.06284 0.0762357 9.13496 0.0038743 12.3636C-0.0684871 15.5923 0.875097 18.7321 2.64061 21.1375C4.40612 23.5428 6.85935 25.0309 9.49588 25.2957C12.1324 25.5604 14.7518 24.5818 16.8155 22.561L21.045 27.7249C21.1519 27.8564 21.279 27.9608 21.419 28.0321C21.5591 28.1033 21.7093 28.14 21.861 28.14C22.0128 28.14 22.163 28.1033 22.303 28.0321C22.4431 27.9608 22.5702 27.8564 22.6771 27.7249C22.8842 27.4633 23 27.1136 23 26.7497C23 26.3858 22.8842 26.0361 22.6771 25.7744ZM10.3679 22.561C8.77668 22.561 7.22122 21.9849 5.89819 20.9056C4.57516 19.8263 3.54398 18.2922 2.93506 16.4974C2.32614 14.7025 2.16681 12.7275 2.47724 10.8221C2.78767 8.91671 3.5539 7.16648 4.67904 5.79277C5.80419 4.41905 7.23771 3.48353 8.79833 3.10452C10.3589 2.72552 11.9766 2.92004 13.4466 3.66349C14.9167 4.40694 16.1732 5.66593 17.0572 7.28125C17.9412 8.89657 18.4131 10.7957 18.4131 12.7384C18.4131 15.3435 17.5655 17.842 16.0567 19.6841C14.5479 21.5261 12.5016 22.561 10.3679 22.561Z" fill="#535353"/>
</svg>
